<svg width="22" height="23" viewBox="0 0 22 23" fill="none" xmlns="http://www.w3.org/2000/svg">
<path d="M12.5732 20.7334L11.4893 21.8174C11.0303 22.2763 10.2881 22.2763 9.83398 21.8174L0.341797 12.33C-0.117187 11.8711 -0.117187 11.1289 0.341797 10.6748L9.83398 1.18259C10.293 0.723602 11.0352 0.723602 11.4893 1.18259L12.5732 2.26657C13.0371 2.73044 13.0273 3.48727 12.5537 3.94138L6.66992 9.54685H20.7031C21.3525 9.54685 21.875 10.0693 21.875 10.7187V12.2812C21.875 12.9306 21.3525 13.4531 20.7031 13.4531H6.66992L12.5537 19.0586C13.0322 19.5127 13.042 20.2695 12.5732 20.7334Z" fill="#453201"/>
</svg>
