<svg width="12" height="12" viewBox="0 0 12 12" fill="none" xmlns="http://www.w3.org/2000/svg">
<g clip-path="url(#clip0)">
<path d="M11.7767 6.30077H0.591766C0.489868 6.30077 0.407288 6.21819 0.407288 6.1163V4.36838C0.407288 4.16486 0.572815 3.99942 0.776245 3.99942H11.5922C11.7956 3.99942 11.9612 4.16486 11.9612 4.36838V6.1163C11.9612 6.21819 11.8786 6.30077 11.7767 6.30077Z" fill="#F4F4F5"/>
<path d="M11.5922 12H0.776245C0.572815 12 0.407288 11.8345 0.407288 11.6311V6.11627C0.407288 6.01437 0.489868 5.93179 0.591766 5.93179H11.7767C11.8786 5.93179 11.9612 6.01437 11.9612 6.11627V11.6311C11.9612 11.8345 11.7956 12 11.5922 12Z" fill="#555555"/>
<path d="M11.7767 5.93179C11.8786 5.93179 11.9612 6.01437 11.9612 6.11627V11.6311C11.9612 11.8345 11.7956 12 11.5922 12H6.1842V5.93179H11.7767Z" fill="black"/>
<path d="M8.92832 10.227H3.44019C3.23648 10.227 3.07123 10.0617 3.07123 9.85804C3.07123 9.65424 3.23648 9.48907 3.44019 9.48907H8.92832C9.13202 9.48907 9.29727 9.65424 9.29727 9.85804C9.29727 10.0617 9.13202 10.227 8.92832 10.227Z" fill="white"/>
<path d="M8.92833 9.48907C9.13203 9.48907 9.29729 9.65424 9.29729 9.85804C9.29729 10.0617 9.13203 10.227 8.92833 10.227H6.1842V9.48907H8.92833Z" fill="#D1D1D4"/>
<path d="M8.92832 8.4427H3.44019C3.23648 8.4427 3.07123 8.27754 3.07123 8.07375C3.07123 7.87005 3.23648 7.7048 3.44019 7.7048H8.92832C9.13202 7.7048 9.29727 7.87005 9.29727 8.07375C9.29727 8.27754 9.13202 8.4427 8.92832 8.4427Z" fill="white"/>
<path d="M8.92833 7.7048C9.13203 7.7048 9.29729 7.87005 9.29729 8.07375C9.29729 8.27754 9.13203 8.4427 8.92833 8.4427H6.1842V7.7048H8.92833Z" fill="#D1D1D4"/>
<path d="M11.5923 3.99942H10.8174L8.63702 6.30077H11.7767C11.8786 6.30077 11.9612 6.21819 11.9612 6.1163V4.36838C11.9612 4.16486 11.7957 3.99942 11.5923 3.99942Z" fill="#D1D1D4"/>
<path d="M8.45792 3.99942L6.27759 6.30077H8.637L10.8173 3.99942H8.45792Z" fill="black"/>
<path d="M6.09849 3.99942L3.91815 6.30077H6.27757L8.4579 3.99942H6.09849Z" fill="#D1D1D4"/>
<path d="M6.09849 3.99942L3.91815 6.30077H6.18418V3.99942H6.09849Z" fill="#F4F4F5"/>
<path d="M3.7391 3.99942L1.55878 6.30077H3.91818L6.0985 3.99942H3.7391Z" fill="#555555"/>
<path d="M0.776245 3.99942C0.572815 3.99942 0.407288 4.16486 0.407288 4.36838V6.1163C0.407288 6.21819 0.489868 6.30077 0.591766 6.30077H1.55875L3.73908 3.99942H0.776245Z" fill="white"/>
<path d="M0.737196 4.33657C0.664412 4.33657 0.593276 4.31496 0.531477 4.27321C0.449629 4.21801 0.39424 4.13451 0.375472 4.03792L0.0771011 2.50322C0.0771011 2.50322 0.0771011 2.50322 0.0771011 2.50313C0.0383743 2.30345 0.169295 2.10936 0.368971 2.07054L10.9862 0.00676162C11.1859 -0.0319652 11.38 0.0988637 11.4188 0.29854L11.7171 1.83333C11.7359 1.92983 11.7158 2.02806 11.6606 2.10991C11.6054 2.19176 11.5218 2.24715 11.4253 2.26592L0.808058 4.3297C0.784438 4.33428 0.760725 4.33657 0.737196 4.33657Z" fill="#F4F4F5"/>
<path d="M11.7171 1.83333L11.4188 0.29863C11.38 0.0988619 11.1859 -0.031967 10.9861 0.00685134L8.08521 0.570725L10.6646 2.41377L11.4253 2.26592C11.5218 2.24724 11.6054 2.19176 11.6606 2.11C11.7158 2.02815 11.7359 1.92992 11.7171 1.83333Z" fill="#D1D1D4"/>
<path d="M5.76917 1.0209L8.34858 2.86395L10.6646 2.41379L8.08518 0.57074L5.76917 1.0209Z" fill="black"/>
<path d="M5.76919 1.0209L5.67755 1.03867L6.11673 3.29782L8.34858 2.86395L5.76919 1.0209Z" fill="#D1D1D4"/>
<path d="M3.45306 1.47107L6.03249 3.3142L6.11672 3.29781L5.67753 1.03867L3.45306 1.47107Z" fill="white"/>
<path d="M1.13708 1.92124L3.7165 3.76438L6.03252 3.31422L3.4531 1.47107L1.13708 1.92124Z" fill="#555555"/>
<path d="M0.368971 2.07059C0.169295 2.10941 0.0383743 2.3035 0.0771011 2.50317V2.50327L0.375472 4.03796C0.39424 4.13455 0.449629 4.21805 0.531477 4.27326C0.593276 4.315 0.664504 4.33661 0.737197 4.33661C0.760726 4.33661 0.784438 4.33432 0.808058 4.32974L3.71651 3.7644L1.1371 1.92126L0.368971 2.07059Z" fill="white"/>
</g>
<defs>
<clipPath id="clip0">
<rect width="12" height="12" fill="white"/>
</clipPath>
</defs>
</svg>
